<svg width="237" height="48" viewBox="0 0 237 48" fill="none" xmlns="http://www.w3.org/2000/svg">
<path d="M96.1441 2.76309V36.9602H90.6242V33.8274C88.707 36.1645 85.9439 37.5241 82.4853 37.5241C75.4241 37.5241 70.2739 32.0042 70.2739 24.661C70.2739 17.2677 75.28 11.7478 82.3412 11.7478C85.6181 11.7478 88.2809 12.9633 90.1982 15.0247V2.76309H96.1441ZM90.4362 24.6547C90.4362 20.1185 87.5353 17.0296 83.281 17.0296C79.2085 17.0296 76.2198 20.2564 76.2198 24.6547C76.2198 29.0531 79.2147 32.2799 83.281 32.2799C87.5353 32.2799 90.4362 29.1471 90.4362 24.6547Z" fill="white"/>
<path d="M113.456 32.4678C116.826 32.4678 118.6 31.2022 119.727 29.003L124.408 31.9979C122.534 35.0367 119.264 37.5679 113.274 37.5679C105.417 37.5679 100.267 31.9979 100.267 24.6547C100.267 17.4995 105.831 11.7416 112.898 11.7416C120.661 11.7416 125.385 17.8254 125.385 24.141C125.385 25.0745 125.341 26.0144 125.247 26.5281H106.112C106.902 30.2248 109.759 32.4678 113.456 32.4678ZM119.677 22.3678C119.019 18.6712 116.494 16.4281 113.036 16.4281C109.577 16.4281 106.858 18.5772 106.112 22.3678H119.677Z" fill="white"/>
<path d="M151.581 12.3054L142.177 36.9602H135.347L125.943 12.3054H132.121L138.762 31.2523L145.403 12.3054H151.581Z" fill="white"/>
<path d="M178.153 12.3054V36.9602H172.633V33.6395C170.81 36.0705 168.047 37.5241 164.494 37.5241C157.433 37.5241 152.283 32.0042 152.283 24.661C152.283 17.2677 157.427 12.1237 164.494 12.1237C168.047 12.1237 170.81 13.4332 172.633 15.8204V12.3117H178.153V12.3054ZM172.445 24.6548C172.445 20.1185 169.544 17.0296 165.29 17.0296C161.218 17.0296 158.229 20.2564 158.229 24.6548C158.229 29.0531 161.224 32.2799 165.29 32.2799C169.551 32.2799 172.445 29.1471 172.445 24.6548Z" fill="white"/>
<path d="M196.636 11.7478V17.3178C192.332 17.3178 189.619 19.611 189.619 22.9317V36.9665H183.679V12.3117H189.293V15.0748C190.972 13.1012 193.547 11.7478 196.636 11.7478Z" fill="white"/>
<path d="M200.095 12.3054H206.035V36.9602H200.095V12.3054Z" fill="white"/>
<path d="M236.166 12.3054V36.9602H230.646V33.6395C228.822 36.0705 226.059 37.5241 222.507 37.5241C215.446 37.5241 210.295 32.0042 210.295 24.661C210.295 17.2677 215.439 12.1237 222.507 12.1237C226.059 12.1237 228.822 13.4332 230.646 15.8204V12.3117H236.166V12.3054ZM230.458 24.6548C230.458 20.1185 227.557 17.0296 223.302 17.0296C219.23 17.0296 216.241 20.2564 216.241 24.6548C216.241 29.0531 219.236 32.2799 223.302 32.2799C227.557 32.2799 230.458 29.1471 230.458 24.6548Z" fill="white"/>
<path d="M206.035 2.76309H200.095V8.70278H206.035V2.76309Z" fill="white"/>
<path d="M9.34816 45.3309C9.37323 46.797 10.6326 47.9436 12.0987 47.9436H25.7011C27.1673 47.9436 28.4329 46.797 28.4517 45.3309C28.4767 43.846 27.2738 42.6305 25.7951 42.6305H11.9985C10.5198 42.6305 9.3231 43.8397 9.34816 45.3309Z" fill="#5E49FF"/>
<path d="M18.5898 36.7534C18.5898 38.2196 19.8429 39.41 21.3842 39.41H35.8826C37.4239 39.41 38.677 38.2196 38.677 36.7534C38.677 35.2873 37.4239 34.0969 35.8826 34.0969H21.3842C19.8366 34.0969 18.5898 35.2873 18.5898 36.7534Z" fill="#5E49FF"/>
<path d="M11.0148 5.3758H2.6879C1.20298 5.3758 0 4.17283 0 2.68791C0 1.20298 1.20298 0 2.6879 0H11.0148C12.4997 0 13.7026 1.20298 13.7026 2.68791C13.6964 4.17283 12.4997 5.3758 11.0148 5.3758Z" fill="#3BD42D"/>
<path d="M19.0471 13.8217H10.7202C9.23533 13.8217 8.03235 12.6187 8.03235 11.1338C8.03235 9.64887 9.23533 8.4459 10.7202 8.4459H19.0471C20.532 8.4459 21.735 9.64887 21.735 11.1338C21.735 12.6187 20.532 13.8217 19.0471 13.8217Z" fill="#3BD42D"/>
<path d="M47.2732 13.8217H26.5845C25.0996 13.8217 23.8966 12.6187 23.8966 11.1338C23.8966 9.64887 25.0996 8.4459 26.5845 8.4459H47.2732C48.7581 8.4459 49.9611 9.64887 49.9611 11.1338C49.9548 12.6187 48.7581 13.8217 47.2732 13.8217Z" fill="#25CBD3"/>
<path d="M40.7383 22.3992H20.0496C18.5647 22.3992 17.3617 21.1962 17.3617 19.7113C17.3617 18.2263 18.5647 17.0234 20.0496 17.0234H40.7383C42.2232 17.0234 43.4262 18.2263 43.4262 19.7113C43.4199 21.1962 42.2169 22.3992 40.7383 22.3992Z" fill="#5E49FF"/>
<path d="M51.352 30.9328H30.6634C29.1784 30.9328 27.9755 29.7298 27.9755 28.2449C27.9755 26.76 29.1784 25.557 30.6634 25.557H51.352C52.837 25.557 54.0399 26.76 54.0399 28.2449C54.0399 29.7298 52.837 30.9328 51.352 30.9328Z" fill="#25CBD3"/>
<path d="M30.6195 5.3758H18.7527C17.2677 5.3758 16.0648 4.17283 16.0648 2.68791C16.0648 1.20298 17.2677 0 18.7527 0H30.6195C32.1044 0 33.3074 1.20298 33.3074 2.68791C33.3074 4.17283 32.1044 5.3758 30.6195 5.3758Z" fill="#5E49FF"/>
<path d="M40.8198 5.3758H38.2823C36.7973 5.3758 35.5944 4.17283 35.5944 2.68791C35.5944 1.20298 36.7973 0 38.2823 0H40.8198C42.3047 0 43.5077 1.20298 43.5077 2.68791C43.5077 4.17283 42.3047 5.3758 40.8198 5.3758Z" fill="#25CBD3"/>
<path d="M51.1014 22.3992H48.5639C47.0789 22.3992 45.876 21.1962 45.876 19.7113C45.876 18.2263 47.0789 17.0234 48.5639 17.0234H51.1014C52.5863 17.0234 53.7893 18.2263 53.7893 19.7113C53.7893 21.1962 52.5863 22.3992 51.1014 22.3992Z" fill="#25CBD3"/>
<path d="M47.2733 39.4664H43.6079C42.123 39.4664 40.92 38.2634 40.92 36.7785C40.92 35.2936 42.123 34.0906 43.6079 34.0906H47.2733C48.7582 34.0906 49.9612 35.2936 49.9612 36.7785C49.9549 38.2634 48.7582 39.4664 47.2733 39.4664Z" fill="#25CBD3"/>
<path d="M4.76805 47.9624H2.6879C1.20298 47.9624 0 46.7594 0 45.2745C0 43.7896 1.20298 42.5866 2.6879 42.5866H4.76805C6.25297 42.5866 7.45595 43.7896 7.45595 45.2745C7.45595 46.7594 6.25297 47.9624 4.76805 47.9624Z" fill="#3BD42D"/>
<path d="M40.8197 48H33.37C31.8851 48 30.6821 46.797 30.6821 45.3121C30.6821 43.8272 31.8851 42.6242 33.37 42.6242H40.8197C42.3046 42.6242 43.5076 43.8272 43.5076 45.3121C43.5076 46.797 42.3046 48 40.8197 48Z" fill="#25CBD3"/>
</svg>
